<svg width="297" height="92" viewBox="0 0 297 92" fill="none" xmlns="http://www.w3.org/2000/svg">
<path d="M7.93994 4.77344H21.519L39.1216 57.1284L56.6738 4.77344H70.2529L44.6035 78H33.5894L7.93994 4.77344ZM0.0942383 4.77344H13.9248L16.4897 59.0396V78H0.0942383V4.77344ZM64.2681 4.77344H78.1489V78H61.7031V59.0396L64.2681 4.77344ZM115.165 79.0059C110.839 79.0059 106.967 78.3185 103.547 76.9438C100.127 75.5692 97.2267 73.6748 94.8462 71.2607C92.4992 68.8132 90.7054 65.9967 89.4648 62.8115C88.2243 59.6263 87.604 56.2231 87.604 52.6021V50.6909C87.604 46.634 88.174 42.8955 89.314 39.4756C90.4539 36.0557 92.1136 33.0884 94.293 30.5737C96.5059 28.0256 99.2217 26.0641 102.44 24.6895C105.659 23.2812 109.331 22.5771 113.455 22.5771C117.31 22.5771 120.747 23.2142 123.765 24.4883C126.782 25.7288 129.33 27.5226 131.409 29.8696C133.488 32.1831 135.064 34.9827 136.137 38.2686C137.243 41.5208 137.796 45.1755 137.796 49.2324V55.6699H93.9409V45.561H122.407V44.354C122.407 42.4429 122.055 40.7664 121.351 39.3247C120.68 37.883 119.674 36.7765 118.333 36.0054C117.025 35.2007 115.366 34.7983 113.354 34.7983C111.443 34.7983 109.85 35.2007 108.576 36.0054C107.302 36.8101 106.279 37.95 105.508 39.4253C104.771 40.867 104.234 42.5602 103.899 44.5049C103.564 46.416 103.396 48.478 103.396 50.6909V52.6021C103.396 54.7144 103.681 56.6423 104.251 58.3857C104.821 60.1292 105.659 61.6213 106.766 62.8618C107.872 64.1024 109.213 65.0747 110.789 65.7788C112.365 66.4829 114.159 66.835 116.17 66.835C118.652 66.835 121.015 66.3656 123.262 65.4268C125.508 64.4544 127.453 62.9456 129.096 60.9004L136.438 69.2993C135.332 70.9087 133.773 72.4678 131.761 73.9766C129.783 75.4518 127.403 76.6589 124.62 77.5977C121.837 78.5365 118.685 79.0059 115.165 79.0059ZM177.125 65.8291V0.75H192.917V78H178.735L177.125 65.8291ZM143.228 51.4453V50.3892C143.228 46.2651 143.681 42.5099 144.586 39.1235C145.525 35.7036 146.883 32.7699 148.66 30.3223C150.47 27.8411 152.7 25.93 155.349 24.5889C157.997 23.2477 161.032 22.5771 164.452 22.5771C167.603 22.5771 170.353 23.2812 172.7 24.6895C175.047 26.0641 177.042 28.0088 178.685 30.5234C180.361 33.0046 181.719 35.9383 182.758 39.3247C183.798 42.6776 184.586 46.3154 185.122 50.2383V52.0488C184.619 55.804 183.831 59.3078 182.758 62.5601C181.719 65.8123 180.361 68.679 178.685 71.1602C177.042 73.6077 175.03 75.5356 172.649 76.9438C170.302 78.3185 167.536 79.0059 164.351 79.0059C160.931 79.0059 157.897 78.3185 155.248 76.9438C152.633 75.5692 150.437 73.6413 148.66 71.1602C146.883 68.679 145.525 65.762 144.586 62.4092C143.681 59.0563 143.228 55.4017 143.228 51.4453ZM158.919 50.3892V51.4453C158.919 53.5911 159.07 55.5861 159.372 57.4302C159.707 59.2743 160.244 60.9004 160.981 62.3086C161.719 63.7168 162.691 64.8232 163.898 65.6279C165.105 66.3991 166.581 66.7847 168.324 66.7847C170.671 66.7847 172.599 66.2482 174.108 65.1753C175.617 64.0688 176.757 62.5433 177.528 60.5986C178.299 58.654 178.701 56.3908 178.735 53.8091V48.5283C178.735 46.3825 178.517 44.4546 178.081 42.7446C177.645 41.0347 176.991 39.5929 176.12 38.4194C175.281 37.2459 174.225 36.3574 172.951 35.7539C171.677 35.1169 170.168 34.7983 168.425 34.7983C166.715 34.7983 165.256 35.2007 164.049 36.0054C162.842 36.7765 161.853 37.8662 161.082 39.2744C160.344 40.6826 159.791 42.3423 159.422 44.2534C159.087 46.131 158.919 48.1763 158.919 50.3892Z" fill="black"/>
<path d="M221.635 4.77344V78H205.29V4.77344H221.635ZM275.197 66.5332L295.314 82.4761L285.054 91.2271L265.289 75.2842L275.197 66.5332ZM296.018 39.7773V43.0464C296.018 48.6121 295.247 53.6079 293.705 58.0337C292.162 62.4595 289.983 66.2314 287.167 69.3496C284.35 72.4678 281.014 74.8651 277.158 76.5415C273.336 78.1844 269.095 79.0059 264.434 79.0059C259.774 79.0059 255.515 78.1844 251.66 76.5415C247.804 74.8651 244.451 72.4678 241.601 69.3496C238.785 66.2314 236.605 62.4595 235.063 58.0337C233.521 53.6079 232.75 48.6121 232.75 43.0464V39.7773C232.75 34.2116 233.521 29.2158 235.063 24.79C236.605 20.3307 238.768 16.542 241.551 13.4238C244.367 10.3057 247.703 7.92513 251.559 6.28223C255.415 4.60579 259.673 3.76758 264.333 3.76758C268.994 3.76758 273.252 4.60579 277.108 6.28223C280.964 7.92513 284.3 10.3057 287.116 13.4238C289.933 16.542 292.112 20.3307 293.654 24.79C295.23 29.2158 296.018 34.2116 296.018 39.7773ZM279.371 43.0464V39.6768C279.371 35.9551 279.036 32.6693 278.365 29.8193C277.728 26.9359 276.756 24.5218 275.448 22.5771C274.174 20.6325 272.598 19.174 270.721 18.2017C268.843 17.1958 266.714 16.6929 264.333 16.6929C261.886 16.6929 259.723 17.1958 257.846 18.2017C256.002 19.174 254.443 20.6325 253.168 22.5771C251.928 24.5218 250.972 26.9359 250.302 29.8193C249.665 32.6693 249.346 35.9551 249.346 39.6768V43.0464C249.346 46.7345 249.665 50.0203 250.302 52.9038C250.972 55.7537 251.945 58.1678 253.219 60.146C254.493 62.1242 256.069 63.6162 257.946 64.6221C259.824 65.6279 261.986 66.1309 264.434 66.1309C266.815 66.1309 268.927 65.6279 270.771 64.6221C272.649 63.6162 274.224 62.1242 275.499 60.146C276.773 58.1678 277.728 55.7537 278.365 52.9038C279.036 50.0203 279.371 46.7345 279.371 43.0464Z" fill="#0077FF"/>
</svg>
